<svg clip-rule="evenodd" fill-rule="evenodd" stroke-linejoin="round" stroke-miterlimit="2" viewBox="0 0 560 400" xmlns="http://www.w3.org/2000/svg"><g fill-rule="nonzero" transform="matrix(.443423 0 0 .44284 -439.958 195.248)"><path d="m1319.19-294.12h608.9v609.7h-608.9z" fill="#ffcf00"/><path d="m1348.47-77.516h36.9l7.83-38.106h41.11l6.82 38.106h45.32l-37.7-184.515h-58.76zm66.18-146.409h.41l13.03 76.213h-28.68z" fill="#231f1f"/><g fill="#231e1f"><path d="m1498.69-77.516h55.16c55.35 0 76.81-44.123 76.81-96.269 0-54.151-26.28-88.246-82.43-88.246h-49.54zm45.73-152.426h3.81c30.28 0 33.29 34.096 33.29 54.152 0 24.067 0 64.179-32.09 64.179h-5.01z"/><path d="m1625.24-77.516h38.11l8.02-38.106h42.32l7.22 38.106h46.73l-39.11-184.515h-60.37zm68.19-146.409h.61l13.23 76.213h-29.48z"/><path d="m1857.29-197.852c0-12.033-3.21-34.095-19.65-34.095-19.26 0-22.07 28.078-22.07 62.173 0 38.107 1.81 60.168 23.07 60.168 16.85 0 20.66-14.039 21.66-36.1l39.51 4.011c0 40.112-23.67 66.184-63.18 66.184-55.35 0-70.39-46.128-70.39-94.263 0-46.128 14.84-96.268 70.39-96.268 43.72 0 63.18 30.084 63.18 68.19z"/></g></g></svg>