<?xml version="1.0" encoding="UTF-8"?><svg xmlns="http://www.w3.org/2000/svg" viewBox="0 0 590.66 126.7"><g fill="#009ed4"><polygon points=".15 .11 19.51 .11 50.88 96.35 82.23 .11 106.26 .11 137.61 96.35 168.97 .11 188.33 .11 147.12 126.59 128.1 126.59 94.25 22.66 60.39 126.59 41.37 126.59 .15 .11 .15 .11 .15 .11"/><polygon points="207.97 .11 226.44 .11 226.44 126.59 207.97 126.59 207.97 .11 207.97 .11 207.97 .11"/><polygon points="251.84 .11 270.32 .11 270.32 108.73 332.26 108.73 332.26 126.59 251.84 126.59 251.84 .11 251.84 .11 251.84 .11"/><polygon points="348.05 .11 366.53 .11 366.53 52.03 418.9 .11 444.65 .11 387.59 56.9 450.41 126.59 425.93 126.59 366.53 60.37 366.53 126.59 348.05 126.59 348.05 .11 348.05 .11 348.05 .11"/><polygon points="461.59 126.59 515.77 .11 535.77 .11 590.5 126.59 570.52 126.59 526.04 22.81 481.58 126.59 461.59 126.59 461.59 126.59 461.59 126.59"/></g></svg>
